<svg xmlns="http://www.w3.org/2000/svg" xmlns:xlink="http://www.w3.org/1999/xlink" version="1.1" width="256" height="256" viewBox="0 0 256 256" xml:space="preserve">

<defs>
</defs>
<g style="stroke: none; stroke-width: 0; stroke-dasharray: none; stroke-linecap: butt; stroke-linejoin: miter; stroke-miterlimit: 10; fill: none; fill-rule: nonzero; opacity: 1;" transform="translate(1.4065934065934016 1.4065934065934016) scale(2.81 2.81)" >
	<path d="M 29.309 90 c -0.552 0 -1 -0.447 -1 -1 s 0.448 -1 1 -1 L 89 87.999 c 0.553 0 1 0.447 1 1 s -0.447 1 -1 1 L 29.309 90 z" style="stroke: none; stroke-width: 1; stroke-dasharray: none; stroke-linecap: butt; stroke-linejoin: miter; stroke-miterlimit: 10; fill: rgb(193,193,193); fill-rule: nonzero; opacity: 1;" transform=" matrix(1 0 0 1 0 0) " stroke-linecap="round" />
	<path d="M 60.398 58.984 L 31.015 29.6 c -0.391 -0.391 -1.023 -0.391 -1.414 0 L 1.459 57.741 c -1.945 1.945 -1.945 5.112 0 7.057 l 23.74 23.74 C 26.142 89.48 27.395 90 28.728 90 c 1.333 0 2.586 -0.52 3.528 -1.462 l 28.141 -28.14 c 0.188 -0.188 0.293 -0.441 0.293 -0.707 S 60.585 59.171 60.398 58.984 z" style="stroke: none; stroke-width: 1; stroke-dasharray: none; stroke-linecap: butt; stroke-linejoin: miter; stroke-miterlimit: 10; fill: rgb(223,74,42); fill-rule: nonzero; opacity: 1;" transform=" matrix(1 0 0 1 0 0) " stroke-linecap="round" />
	<path d="M 88.538 25.199 l -23.74 -23.74 c -1.945 -1.945 -5.111 -1.945 -7.057 0 L 29.6 29.6 c -0.391 0.391 -0.391 1.023 0 1.414 l 29.383 29.383 c 0.188 0.188 0.441 0.293 0.707 0.293 c 0.266 0 0.52 -0.105 0.707 -0.293 l 28.14 -28.141 C 89.48 31.314 90 30.061 90 28.728 C 90 27.395 89.48 26.142 88.538 25.199 z" style="stroke: none; stroke-width: 1; stroke-dasharray: none; stroke-linecap: butt; stroke-linejoin: miter; stroke-miterlimit: 10; fill: rgb(72,126,210); fill-rule: nonzero; opacity: 1;" transform=" matrix(1 0 0 1 0 0) " stroke-linecap="round" />
	<path d="M 76.373 29.576 c -0.256 0 -0.512 -0.098 -0.707 -0.293 L 60.714 14.331 c -0.391 -0.391 -0.391 -1.023 0 -1.414 c 0.391 -0.391 1.023 -0.391 1.414 0 L 77.08 27.869 c 0.391 0.391 0.391 1.023 0 1.414 C 76.884 29.479 76.629 29.576 76.373 29.576 z" style="stroke: none; stroke-width: 1; stroke-dasharray: none; stroke-linecap: butt; stroke-linejoin: miter; stroke-miterlimit: 10; fill: rgb(255,255,255); fill-rule: nonzero; opacity: 1;" transform=" matrix(1 0 0 1 0 0) " stroke-linecap="round" />
</g>
</svg>