<svg xmlns="http://www.w3.org/2000/svg" xmlns:xlink="http://www.w3.org/1999/xlink" version="1.1" width="256" height="256" viewBox="0 0 256 256" xml:space="preserve">

<defs>
</defs>
<g style="stroke: none; stroke-width: 0; stroke-dasharray: none; stroke-linecap: butt; stroke-linejoin: miter; stroke-miterlimit: 10; fill: none; fill-rule: nonzero; opacity: 1;" transform="translate(1.4065934065934016 1.4065934065934016) scale(2.81 2.81)" >
	<path d="M 83.447 27.034 v -5.196 c 0 -3.242 -2.628 -5.871 -5.871 -5.871 H 44.087 v 14.917 h 39.36 C 83.447 30.884 83.447 27.034 83.447 27.034 z" style="stroke: none; stroke-width: 1; stroke-dasharray: none; stroke-linecap: butt; stroke-linejoin: miter; stroke-miterlimit: 10; fill: rgb(249,249,249); fill-rule: nonzero; opacity: 1;" transform=" matrix(1 0 0 1 0 0) " stroke-linecap="round" />
	<path d="M 50.949 26.947 c -3.38 -0.768 -5.906 -3.786 -5.906 -7.398 l 0 0 c 0 -3.978 -3.225 -7.204 -7.204 -7.204 H 8.204 C 4.225 12.345 1 15.57 1 19.548 v 7.398 v 45.14 c 0 3.076 2.493 5.569 5.569 5.569 h 76.864 c 3.076 0 5.569 -2.493 5.569 -5.569 V 33.524 c 0 -3.633 -2.945 -6.577 -6.577 -6.577 C 82.424 26.947 50.949 26.947 50.949 26.947 z" style="stroke: none; stroke-width: 1; stroke-dasharray: none; stroke-linecap: butt; stroke-linejoin: miter; stroke-miterlimit: 10; fill: rgb(105,198,255); fill-rule: nonzero; opacity: 1;" transform=" matrix(1 0 0 1 0 0) " stroke-linecap="round" />
	<path d="M 83.432 78.655 H 6.569 C 2.947 78.655 0 75.709 0 72.087 v -52.54 c 0 -4.523 3.68 -8.204 8.204 -8.204 H 37.84 c 4.523 0 8.203 3.68 8.203 8.204 c 0 3.06 2.06 5.675 5.022 6.398 h 31.357 c 4.178 0 7.577 3.399 7.577 7.577 v 38.563 C 90 75.709 87.054 78.655 83.432 78.655 z M 8.204 13.345 C 4.783 13.345 2 16.127 2 19.548 v 52.54 c 0 2.519 2.05 4.568 4.569 4.568 h 76.864 c 2.519 0 4.568 -2.05 4.568 -4.568 V 33.524 c 0 -3.075 -2.502 -5.577 -5.577 -5.577 H 50.949 c -0.074 0 -0.149 -0.008 -0.222 -0.025 c -3.936 -0.895 -6.685 -4.338 -6.685 -8.374 c 0 -3.421 -2.783 -6.204 -6.203 -6.204 H 8.204 V 13.345 z" style="stroke: none; stroke-width: 1; stroke-dasharray: none; stroke-linecap: butt; stroke-linejoin: miter; stroke-miterlimit: 10; fill: rgb(0,0,0); fill-rule: nonzero; opacity: 1;" transform=" matrix(1 0 0 1 0 0) " stroke-linecap="round" />
	<path d="M 83.432 78.655 H 6.569 C 2.947 78.655 0 75.709 0 72.087 v -52.54 c 0 -4.523 3.68 -8.204 8.204 -8.204 H 37.84 c 4.523 0 8.203 3.68 8.203 8.204 c 0 3.06 2.06 5.675 5.022 6.398 h 31.357 c 4.178 0 7.577 3.399 7.577 7.577 v 38.563 C 90 75.709 87.054 78.655 83.432 78.655 z M 8.204 13.345 C 4.783 13.345 2 16.127 2 19.548 v 52.54 c 0 2.519 2.05 4.568 4.569 4.568 h 76.864 c 2.519 0 4.568 -2.05 4.568 -4.568 V 33.524 c 0 -3.075 -2.502 -5.577 -5.577 -5.577 H 50.949 c -0.074 0 -0.149 -0.008 -0.222 -0.025 c -3.936 -0.895 -6.685 -4.338 -6.685 -8.374 c 0 -3.421 -2.783 -6.204 -6.203 -6.204 H 8.204 V 13.345 z" style="stroke: none; stroke-width: 1; stroke-dasharray: none; stroke-linecap: butt; stroke-linejoin: miter; stroke-miterlimit: 10; fill: rgb(0,0,0); fill-rule: nonzero; opacity: 1;" transform=" matrix(1 0 0 1 0 0) " stroke-linecap="round" />
	<path d="M 83.447 28.034 c -0.553 0 -1 -0.448 -1 -1 v -5.196 c 0 -2.686 -2.186 -4.871 -4.871 -4.871 H 44.087 c -0.552 0 -1 -0.448 -1 -1 s 0.448 -1 1 -1 h 33.489 c 3.789 0 6.871 3.082 6.871 6.871 v 5.196 C 84.447 27.586 84 28.034 83.447 28.034 z" style="stroke: none; stroke-width: 1; stroke-dasharray: none; stroke-linecap: butt; stroke-linejoin: miter; stroke-miterlimit: 10; fill: rgb(0,0,0); fill-rule: nonzero; opacity: 1;" transform=" matrix(1 0 0 1 0 0) " stroke-linecap="round" />
	<path d="M 45 40.281 c -0.256 0 -0.512 0.098 -0.707 0.293 l -8.895 8.895 c -0.391 0.391 -0.391 1.023 0 1.414 s 1.023 0.391 1.414 0 L 45 42.695 l 8.188 8.188 c 0.391 0.391 1.023 0.391 1.414 0 s 0.391 -1.023 0 -1.414 l -8.895 -8.895 C 45.512 40.379 45.256 40.281 45 40.281 z" style="stroke: none; stroke-width: 1; stroke-dasharray: none; stroke-linecap: butt; stroke-linejoin: miter; stroke-miterlimit: 10; fill: rgb(0,0,0); fill-rule: nonzero; opacity: 1;" transform=" matrix(1 0 0 1 0 0) " stroke-linecap="round" />
	<path d="M 45 40.281 c -0.552 0 -1 0.447 -1 1 v 21.438 c 0 0.552 0.448 1 1 1 s 1 -0.448 1 -1 V 41.281 C 46 40.729 45.552 40.281 45 40.281 z" style="stroke: none; stroke-width: 1; stroke-dasharray: none; stroke-linecap: butt; stroke-linejoin: miter; stroke-miterlimit: 10; fill: rgb(0,0,0); fill-rule: nonzero; opacity: 1;" transform=" matrix(1 0 0 1 0 0) " stroke-linecap="round" />
</g>
</svg>